<?xml version="1.0" encoding="utf-8" standalone="no"?>
<!DOCTYPE svg PUBLIC "-//W3C//DTD SVG 1.1//EN"
  "http://www.w3.org/Graphics/SVG/1.1/DTD/svg11.dtd">
<svg xmlns:xlink="http://www.w3.org/1999/xlink" width="617.095781pt" height="344.984063pt" viewBox="0 0 617.095781 344.984063" xmlns="http://www.w3.org/2000/svg" version="1.1">
 <metadata>
  <rdf:RDF xmlns:dc="http://purl.org/dc/elements/1.1/" xmlns:cc="http://creativecommons.org/ns#" xmlns:rdf="http://www.w3.org/1999/02/22-rdf-syntax-ns#">
   <cc:Work>
    <dc:type rdf:resource="http://purl.org/dc/dcmitype/StillImage"/>
    <dc:date>2026-04-23T19:19:15.479232</dc:date>
    <dc:format>image/svg+xml</dc:format>
    <dc:creator>
     <cc:Agent>
      <dc:title>Matplotlib v3.10.8, https://matplotlib.org/</dc:title>
     </cc:Agent>
    </dc:creator>
   </cc:Work>
  </rdf:RDF>
 </metadata>
 <defs>
  <style type="text/css">*{stroke-linejoin: round; stroke-linecap: butt}</style>
 </defs>
 <g id="figure_1">
  <g id="patch_1">
   <path d="M 0 344.984063 
L 617.095781 344.984063 
L 617.095781 0 
L 0 0 
z
" style="fill: #ffffff"/>
  </g>
  <g id="axes_1">
   <g id="patch_2">
    <path d="M 48.295781 304.233125 
L 606.295781 304.233125 
L 606.295781 27.033125 
L 48.295781 27.033125 
z
" style="fill: #ffffff"/>
   </g>
   <g id="matplotlib.axis_1">
    <g id="xtick_1">
     <g id="line2d_1">
      <defs>
       <path id="m644f828f9d" d="M 0 0 
L 0 3 
" style="stroke: #555555; stroke-width: 0.6"/>
      </defs>
      <g>
       <use xlink:href="#m644f828f9d" x="73.659418" y="304.233125" style="fill: #555555; stroke: #555555; stroke-width: 0.6"/>
      </g>
     </g>
     <g id="text_1">
      <text style="font-size: 10px; font-family: 'Helvetica Neue', 'Helvetica', 'Arial', 'DejaVu Sans', sans-serif; text-anchor: middle; fill: #444444" x="73.659418" y="317.87375" transform="rotate(-0 73.659418 317.87375)">5</text>
     </g>
    </g>
    <g id="xtick_2">
     <g id="line2d_2">
      <g>
       <use xlink:href="#m644f828f9d" x="200.477599" y="304.233125" style="fill: #555555; stroke: #555555; stroke-width: 0.6"/>
      </g>
     </g>
     <g id="text_2">
      <text style="font-size: 10px; font-family: 'Helvetica Neue', 'Helvetica', 'Arial', 'DejaVu Sans', sans-serif; text-anchor: middle; fill: #444444" x="200.477599" y="317.87375" transform="rotate(-0 200.477599 317.87375)">10</text>
     </g>
    </g>
    <g id="xtick_3">
     <g id="line2d_3">
      <g>
       <use xlink:href="#m644f828f9d" x="327.295781" y="304.233125" style="fill: #555555; stroke: #555555; stroke-width: 0.6"/>
      </g>
     </g>
     <g id="text_3">
      <text style="font-size: 10px; font-family: 'Helvetica Neue', 'Helvetica', 'Arial', 'DejaVu Sans', sans-serif; text-anchor: middle; fill: #444444" x="327.295781" y="317.87375" transform="rotate(-0 327.295781 317.87375)">15</text>
     </g>
    </g>
    <g id="xtick_4">
     <g id="line2d_4">
      <g>
       <use xlink:href="#m644f828f9d" x="580.932145" y="304.233125" style="fill: #555555; stroke: #555555; stroke-width: 0.6"/>
      </g>
     </g>
     <g id="text_4">
      <text style="font-size: 10px; font-family: 'Helvetica Neue', 'Helvetica', 'Arial', 'DejaVu Sans', sans-serif; text-anchor: middle; fill: #444444" x="580.932145" y="317.87375" transform="rotate(-0 580.932145 317.87375)">25</text>
     </g>
    </g>
    <g id="text_5">
     <text style="font-size: 11px; font-family: 'Helvetica Neue', 'Helvetica', 'Arial', 'DejaVu Sans', sans-serif; text-anchor: middle" x="327.295781" y="331.884375" transform="rotate(-0 327.295781 331.884375)">Single-kill churn rate (% of nodes)</text>
    </g>
   </g>
   <g id="matplotlib.axis_2">
    <g id="ytick_1">
     <g id="line2d_5">
      <path d="M 48.295781 304.233125 
L 606.295781 304.233125 
" clip-path="url(#pcda52e7f60)" style="fill: none; stroke: #dedede; stroke-width: 0.5; stroke-linecap: square"/>
     </g>
     <g id="line2d_6">
      <defs>
       <path id="m69267f33ec" d="M 0 0 
L -3 0 
" style="stroke: #555555; stroke-width: 0.6"/>
      </defs>
      <g>
       <use xlink:href="#m69267f33ec" x="48.295781" y="304.233125" style="fill: #555555; stroke: #555555; stroke-width: 0.6"/>
      </g>
     </g>
     <g id="text_6">
      <text style="font-size: 10px; font-family: 'Helvetica Neue', 'Helvetica', 'Arial', 'DejaVu Sans', sans-serif; text-anchor: end; fill: #444444" x="41.795781" y="307.803438" transform="rotate(-0 41.795781 307.803438)">40</text>
     </g>
    </g>
    <g id="ytick_2">
     <g id="line2d_7">
      <path d="M 48.295781 261.586971 
L 606.295781 261.586971 
" clip-path="url(#pcda52e7f60)" style="fill: none; stroke: #dedede; stroke-width: 0.5; stroke-linecap: square"/>
     </g>
     <g id="line2d_8">
      <g>
       <use xlink:href="#m69267f33ec" x="48.295781" y="261.586971" style="fill: #555555; stroke: #555555; stroke-width: 0.6"/>
      </g>
     </g>
     <g id="text_7">
      <text style="font-size: 10px; font-family: 'Helvetica Neue', 'Helvetica', 'Arial', 'DejaVu Sans', sans-serif; text-anchor: end; fill: #444444" x="41.795781" y="265.157284" transform="rotate(-0 41.795781 265.157284)">50</text>
     </g>
    </g>
    <g id="ytick_3">
     <g id="line2d_9">
      <path d="M 48.295781 218.940817 
L 606.295781 218.940817 
" clip-path="url(#pcda52e7f60)" style="fill: none; stroke: #dedede; stroke-width: 0.5; stroke-linecap: square"/>
     </g>
     <g id="line2d_10">
      <g>
       <use xlink:href="#m69267f33ec" x="48.295781" y="218.940817" style="fill: #555555; stroke: #555555; stroke-width: 0.6"/>
      </g>
     </g>
     <g id="text_8">
      <text style="font-size: 10px; font-family: 'Helvetica Neue', 'Helvetica', 'Arial', 'DejaVu Sans', sans-serif; text-anchor: end; fill: #444444" x="41.795781" y="222.51113" transform="rotate(-0 41.795781 222.51113)">60</text>
     </g>
    </g>
    <g id="ytick_4">
     <g id="line2d_11">
      <path d="M 48.295781 176.294663 
L 606.295781 176.294663 
" clip-path="url(#pcda52e7f60)" style="fill: none; stroke: #dedede; stroke-width: 0.5; stroke-linecap: square"/>
     </g>
     <g id="line2d_12">
      <g>
       <use xlink:href="#m69267f33ec" x="48.295781" y="176.294663" style="fill: #555555; stroke: #555555; stroke-width: 0.6"/>
      </g>
     </g>
     <g id="text_9">
      <text style="font-size: 10px; font-family: 'Helvetica Neue', 'Helvetica', 'Arial', 'DejaVu Sans', sans-serif; text-anchor: end; fill: #444444" x="41.795781" y="179.864976" transform="rotate(-0 41.795781 179.864976)">70</text>
     </g>
    </g>
    <g id="ytick_5">
     <g id="line2d_13">
      <path d="M 48.295781 133.64851 
L 606.295781 133.64851 
" clip-path="url(#pcda52e7f60)" style="fill: none; stroke: #dedede; stroke-width: 0.5; stroke-linecap: square"/>
     </g>
     <g id="line2d_14">
      <g>
       <use xlink:href="#m69267f33ec" x="48.295781" y="133.64851" style="fill: #555555; stroke: #555555; stroke-width: 0.6"/>
      </g>
     </g>
     <g id="text_10">
      <text style="font-size: 10px; font-family: 'Helvetica Neue', 'Helvetica', 'Arial', 'DejaVu Sans', sans-serif; text-anchor: end; fill: #444444" x="41.795781" y="137.218822" transform="rotate(-0 41.795781 137.218822)">80</text>
     </g>
    </g>
    <g id="ytick_6">
     <g id="line2d_15">
      <path d="M 48.295781 91.002356 
L 606.295781 91.002356 
" clip-path="url(#pcda52e7f60)" style="fill: none; stroke: #dedede; stroke-width: 0.5; stroke-linecap: square"/>
     </g>
     <g id="line2d_16">
      <g>
       <use xlink:href="#m69267f33ec" x="48.295781" y="91.002356" style="fill: #555555; stroke: #555555; stroke-width: 0.6"/>
      </g>
     </g>
     <g id="text_11">
      <text style="font-size: 10px; font-family: 'Helvetica Neue', 'Helvetica', 'Arial', 'DejaVu Sans', sans-serif; text-anchor: end; fill: #444444" x="41.795781" y="94.572668" transform="rotate(-0 41.795781 94.572668)">90</text>
     </g>
    </g>
    <g id="ytick_7">
     <g id="line2d_17">
      <path d="M 48.295781 48.356202 
L 606.295781 48.356202 
" clip-path="url(#pcda52e7f60)" style="fill: none; stroke: #dedede; stroke-width: 0.5; stroke-linecap: square"/>
     </g>
     <g id="line2d_18">
      <g>
       <use xlink:href="#m69267f33ec" x="48.295781" y="48.356202" style="fill: #555555; stroke: #555555; stroke-width: 0.6"/>
      </g>
     </g>
     <g id="text_12">
      <text style="font-size: 10px; font-family: 'Helvetica Neue', 'Helvetica', 'Arial', 'DejaVu Sans', sans-serif; text-anchor: end; fill: #444444" x="41.795781" y="51.926514" transform="rotate(-0 41.795781 51.926514)">100</text>
     </g>
    </g>
    <g id="text_13">
     <text style="font-size: 11px; font-family: 'Helvetica Neue', 'Helvetica', 'Arial', 'DejaVu Sans', sans-serif; text-anchor: middle" x="18.840312" y="165.633125" transform="rotate(-90 18.840312 165.633125)">Delivery rate (%)</text>
    </g>
   </g>
   <g id="FillBetweenPolyCollection_1">
    <defs>
     <path id="mbb4da44cb8" d="M 73.659418 -296.554921 
L 73.659418 -291.242093 
L 200.477599 -291.87291 
L 327.295781 -291.315591 
L 580.932145 -289.540612 
L 580.932145 -296.37997 
L 580.932145 -296.37997 
L 327.295781 -296.310838 
L 200.477599 -296.606441 
L 73.659418 -296.554921 
z
" style="stroke: #9b9b9b; stroke-opacity: 0.15"/>
    </defs>
    <g clip-path="url(#pcda52e7f60)">
     <use xlink:href="#mbb4da44cb8" x="0" y="344.984063" style="fill: #9b9b9b; fill-opacity: 0.15; stroke: #9b9b9b; stroke-opacity: 0.15"/>
    </g>
   </g>
   <g id="FillBetweenPolyCollection_2">
    <defs>
     <path id="m18ae08f0bf" d="M 73.659418 -255.462472 
L 73.659418 -220.942788 
L 200.477599 -170.195912 
L 327.295781 -120.186992 
L 580.932145 -65.936321 
L 580.932145 -111.092939 
L 580.932145 -111.092939 
L 327.295781 -151.857899 
L 200.477599 -221.087624 
L 73.659418 -255.462472 
z
" style="stroke: #c4572b; stroke-opacity: 0.15"/>
    </defs>
    <g clip-path="url(#pcda52e7f60)">
     <use xlink:href="#m18ae08f0bf" x="0" y="344.984063" style="fill: #c4572b; fill-opacity: 0.15; stroke: #c4572b; stroke-opacity: 0.15"/>
    </g>
   </g>
   <g id="FillBetweenPolyCollection_3">
    <defs>
     <path id="m2ad6e2e6d0" d="M 73.659418 -269.159254 
L 73.659418 -239.145329 
L 200.477599 -206.231028 
L 327.295781 -161.26123 
L 580.932145 -117.649919 
L 580.932145 -153.030295 
L 580.932145 -153.030295 
L 327.295781 -186.18206 
L 200.477599 -243.392447 
L 73.659418 -269.159254 
z
" style="stroke: #2d7373; stroke-opacity: 0.15"/>
    </defs>
    <g clip-path="url(#pcda52e7f60)">
     <use xlink:href="#m2ad6e2e6d0" x="0" y="344.984063" style="fill: #2d7373; fill-opacity: 0.15; stroke: #2d7373; stroke-opacity: 0.15"/>
    </g>
   </g>
   <g id="line2d_19">
    <path d="M 73.659418 51.085556 
L 200.477599 50.744387 
L 327.295781 51.170848 
L 580.932145 52.023771 
" clip-path="url(#pcda52e7f60)" style="fill: none; stroke: #9b9b9b; stroke-width: 2; stroke-linecap: square"/>
    <defs>
     <path id="mf785682d42" d="M 0 2.5 
C 0.663008 2.5 1.29895 2.236584 1.767767 1.767767 
C 2.236584 1.29895 2.5 0.663008 2.5 0 
C 2.5 -0.663008 2.236584 -1.29895 1.767767 -1.767767 
C 1.29895 -2.236584 0.663008 -2.5 0 -2.5 
C -0.663008 -2.5 -1.29895 -2.236584 -1.767767 -1.767767 
C -2.236584 -1.29895 -2.5 -0.663008 -2.5 0 
C -2.5 0.663008 -2.236584 1.29895 -1.767767 1.767767 
C -1.29895 2.236584 -0.663008 2.5 0 2.5 
z
" style="stroke: #9b9b9b"/>
    </defs>
    <g clip-path="url(#pcda52e7f60)">
     <use xlink:href="#mf785682d42" x="73.659418" y="51.085556" style="fill: #9b9b9b; stroke: #9b9b9b"/>
     <use xlink:href="#mf785682d42" x="200.477599" y="50.744387" style="fill: #9b9b9b; stroke: #9b9b9b"/>
     <use xlink:href="#mf785682d42" x="327.295781" y="51.170848" style="fill: #9b9b9b; stroke: #9b9b9b"/>
     <use xlink:href="#mf785682d42" x="580.932145" y="52.023771" style="fill: #9b9b9b; stroke: #9b9b9b"/>
    </g>
   </g>
   <g id="line2d_20">
    <path d="M 73.659418 106.781433 
L 200.477599 149.342294 
L 327.295781 208.961617 
L 580.932145 256.469433 
" clip-path="url(#pcda52e7f60)" style="fill: none; stroke: #c4572b; stroke-width: 2; stroke-linecap: square"/>
    <defs>
     <path id="m3db0159e3d" d="M 0 2.5 
C 0.663008 2.5 1.29895 2.236584 1.767767 1.767767 
C 2.236584 1.29895 2.5 0.663008 2.5 0 
C 2.5 -0.663008 2.236584 -1.29895 1.767767 -1.767767 
C 1.29895 -2.236584 0.663008 -2.5 0 -2.5 
C -0.663008 -2.5 -1.29895 -2.236584 -1.767767 -1.767767 
C -2.236584 -1.29895 -2.5 -0.663008 -2.5 0 
C -2.5 0.663008 -2.236584 1.29895 -1.767767 1.767767 
C -1.29895 2.236584 -0.663008 2.5 0 2.5 
z
" style="stroke: #c4572b"/>
    </defs>
    <g clip-path="url(#pcda52e7f60)">
     <use xlink:href="#m3db0159e3d" x="73.659418" y="106.781433" style="fill: #c4572b; stroke: #c4572b"/>
     <use xlink:href="#m3db0159e3d" x="200.477599" y="149.342294" style="fill: #c4572b; stroke: #c4572b"/>
     <use xlink:href="#m3db0159e3d" x="327.295781" y="208.961617" style="fill: #c4572b; stroke: #c4572b"/>
     <use xlink:href="#m3db0159e3d" x="580.932145" y="256.469433" style="fill: #c4572b; stroke: #c4572b"/>
    </g>
   </g>
   <g id="line2d_21">
    <path d="M 73.659418 90.831771 
L 200.477599 120.172325 
L 327.295781 171.262417 
L 580.932145 209.643956 
" clip-path="url(#pcda52e7f60)" style="fill: none; stroke: #2d7373; stroke-width: 2; stroke-linecap: square"/>
    <defs>
     <path id="m48beffb026" d="M 0 2.5 
C 0.663008 2.5 1.29895 2.236584 1.767767 1.767767 
C 2.236584 1.29895 2.5 0.663008 2.5 0 
C 2.5 -0.663008 2.236584 -1.29895 1.767767 -1.767767 
C 1.29895 -2.236584 0.663008 -2.5 0 -2.5 
C -0.663008 -2.5 -1.29895 -2.236584 -1.767767 -1.767767 
C -2.236584 -1.29895 -2.5 -0.663008 -2.5 0 
C -2.5 0.663008 -2.236584 1.29895 -1.767767 1.767767 
C -1.29895 2.236584 -0.663008 2.5 0 2.5 
z
" style="stroke: #2d7373"/>
    </defs>
    <g clip-path="url(#pcda52e7f60)">
     <use xlink:href="#m48beffb026" x="73.659418" y="90.831771" style="fill: #2d7373; stroke: #2d7373"/>
     <use xlink:href="#m48beffb026" x="200.477599" y="120.172325" style="fill: #2d7373; stroke: #2d7373"/>
     <use xlink:href="#m48beffb026" x="327.295781" y="171.262417" style="fill: #2d7373; stroke: #2d7373"/>
     <use xlink:href="#m48beffb026" x="580.932145" y="209.643956" style="fill: #2d7373; stroke: #2d7373"/>
    </g>
   </g>
   <g id="patch_3">
    <path d="M 48.295781 304.233125 
L 48.295781 27.033125 
" style="fill: none; stroke: #555555; stroke-width: 0.75; stroke-linejoin: miter; stroke-linecap: square"/>
   </g>
   <g id="patch_4">
    <path d="M 48.295781 304.233125 
L 606.295781 304.233125 
" style="fill: none; stroke: #555555; stroke-width: 0.75; stroke-linejoin: miter; stroke-linecap: square"/>
   </g>
   <g id="text_14">
    <text style="font-weight: 700; font-size: 14px; font-family: 'Helvetica Neue', 'Helvetica', 'Arial', 'DejaVu Sans', sans-serif; text-anchor: middle" x="327.295781" y="21.033125" transform="rotate(-0 327.295781 21.033125)">Discrete-churn recovery (mean ± σ, 5 reps per rate, 25 K)</text>
   </g>
   <g id="legend_1">
    <g id="line2d_22">
     <path d="M 57.295781 261.203438 
L 67.295781 261.203438 
L 77.295781 261.203438 
" style="fill: none; stroke: #9b9b9b; stroke-width: 2; stroke-linecap: square"/>
     <g>
      <use xlink:href="#mf785682d42" x="67.295781" y="261.203438" style="fill: #9b9b9b; stroke: #9b9b9b"/>
     </g>
    </g>
    <g id="text_15">
     <text style="font-size: 10px; font-family: 'Helvetica Neue', 'Helvetica', 'Arial', 'DejaVu Sans', sans-serif; text-anchor: start" x="85.295781" y="264.703438" transform="rotate(-0 85.295781 264.703438)">Baseline (pre-kill)</text>
    </g>
    <g id="line2d_23">
     <path d="M 57.295781 275.483125 
L 67.295781 275.483125 
L 77.295781 275.483125 
" style="fill: none; stroke: #c4572b; stroke-width: 2; stroke-linecap: square"/>
     <g>
      <use xlink:href="#m3db0159e3d" x="67.295781" y="275.483125" style="fill: #c4572b; stroke: #c4572b"/>
     </g>
    </g>
    <g id="text_16">
     <text style="font-size: 10px; font-family: 'Helvetica Neue', 'Helvetica', 'Arial', 'DejaVu Sans', sans-serif; text-anchor: start" x="85.295781" y="278.983125" transform="rotate(-0 85.295781 278.983125)">Immediate (post-kill)</text>
    </g>
    <g id="line2d_24">
     <path d="M 57.295781 289.762813 
L 67.295781 289.762813 
L 77.295781 289.762813 
" style="fill: none; stroke: #2d7373; stroke-width: 2; stroke-linecap: square"/>
     <g>
      <use xlink:href="#m48beffb026" x="67.295781" y="289.762813" style="fill: #2d7373; stroke: #2d7373"/>
     </g>
    </g>
    <g id="text_17">
     <text style="font-size: 10px; font-family: 'Helvetica Neue', 'Helvetica', 'Arial', 'DejaVu Sans', sans-serif; text-anchor: start" x="85.295781" y="293.262813" transform="rotate(-0 85.295781 293.262813)">Recovered (3 refresh rounds)</text>
    </g>
   </g>
  </g>
 </g>
 <defs>
  <clipPath id="pcda52e7f60">
   <rect x="48.295781" y="27.033125" width="558" height="277.2"/>
  </clipPath>
 </defs>
</svg>
